<svg xmlns="http://www.w3.org/2000/svg" viewBox="0 0 192 192" width="192" height="192">
  <rect width="192" height="192" rx="24" fill="#E77447"/>
  <g fill="white">
    <path d="M96 32c-35.3 0-64 28.7-64 64s28.7 64 64 64 64-28.7 64-64-28.7-64-64-64zm0 112c-26.5 0-48-21.5-48-48s21.5-48 48-48 48 21.5 48 48-21.5 48-48 48z"/>
    <path d="M96 56c-22.1 0-40 17.9-40 40s17.9 40 40 40 40-17.9 40-40-17.9-40-40-40zm20 44h-16v16c0 2.2-1.8 4-4 4s-4-1.8-4-4v-16H76c-2.2 0-4-1.8-4-4s1.8-4 4-4h16V76c0-2.2 1.8-4 4-4s4 1.8 4 4v16h16c2.2 0 4 1.8 4 4s-1.8 4-4 4z"/>
  </g>
</svg>
