<svg xmlns="http://www.w3.org/2000/svg" viewBox="0 0 512 512" width="512" height="512">
  <rect width="512" height="512" rx="64" fill="#E77447"/>
  <g fill="white">
    <path d="M256 85c-94.3 0-171 76.7-171 171s76.7 171 171 171 171-76.7 171-171S350.3 85 256 85zm0 299c-70.7 0-128-57.3-128-128s57.3-128 128-128 128 57.3 128 128-57.3 128-128 128z"/>
    <path d="M256 149c-58.8 0-107 48.2-107 107s48.2 107 107 107 107-48.2 107-107-48.2-107-107-107zm53 117h-43v43c0 5.5-4.5 10-10 10s-10-4.5-10-10v-43h-43c-5.5 0-10-4.5-10-10s4.5-10 10-10h43v-43c0-5.5 4.5-10 10-10s10 4.5 10 10v43h43c5.5 0 10 4.5 10 10s-4.5 10-10 10z"/>
  </g>
</svg>
